<svg width="2708" height="717" viewBox="0 0 2708 717" fill="none" xmlns="http://www.w3.org/2000/svg">
<path d="M0.512207 419.941C0.512207 204.7 174.983 30.1953 390.224 30.1953V85.872C205.724 85.872 56.1806 235.44 56.1806 419.941H0.512207Z" fill="url(#paint0_linear_64_36)"/>
<path d="M390.224 642.606C267.221 642.606 167.534 542.894 167.534 419.932C167.534 296.929 267.221 197.217 390.224 197.217V141.54C236.472 141.54 111.857 266.189 111.857 419.941C111.857 573.667 236.472 698.282 390.224 698.282V642.606Z" fill="url(#paint1_linear_64_36)"/>
<path d="M390.224 419.915V252.894C297.961 252.894 223.202 327.678 223.202 419.94C223.202 512.178 297.961 586.937 390.224 586.937C482.495 586.937 557.246 512.178 557.246 419.94L390.224 419.915Z" fill="url(#paint2_linear_64_36)"/>
<path d="M749.986 416.4H855.814C850.588 428.159 842.749 446.45 840.789 450.369C837.523 456.249 830.337 462.781 815.312 462.781H702.951V5.49981H735.614C743.453 6.15307 749.986 12.0324 749.986 19.8715V416.4ZM1205.63 416.4H1303.62C1298.4 428.159 1290.56 446.45 1288.6 450.369C1285.33 456.249 1278.15 462.781 1263.12 462.781H1158.6V18.565C1159.25 11.3792 1165.13 5.49981 1172.97 5.49981H1295.13L1279.45 39.4693C1276.84 45.3486 1269.65 52.5345 1254.63 52.5345H1216.74C1210.21 52.5345 1205.63 57.1073 1205.63 63.6399V199.518H1276.19C1270.96 211.277 1263.12 230.221 1261.16 234.141C1257.9 240.02 1251.36 246.553 1236.34 246.553H1216.74C1210.86 246.553 1205.63 251.779 1205.63 257.658V416.4ZM1774.3 462.781L1708.32 30.3237C1706.36 17.9118 1703.09 5.49981 1683.49 5.49981H1658.02L1588.77 462.781H1640.38L1681.53 147.91L1722.69 462.781H1774.3ZM2077.08 5.49981H2167.89C2199.89 5.49981 2225.37 30.9769 2226.03 62.9867V405.295C2225.37 437.304 2199.89 462.781 2167.89 462.781H2077.08V5.49981ZM2179.64 392.229V76.0518C2179.64 59.0671 2167.89 52.5345 2154.82 52.5345H2124.12V416.4H2154.82C2167.89 416.4 2179.64 409.867 2179.64 392.229ZM2694.09 104.795C2690.17 106.755 2671.87 115.247 2659.46 120.473V67.5595C2659.46 53.1878 2648.36 42.0823 2634.64 42.0823C2620.92 42.0823 2609.82 53.1878 2609.82 67.5595V111.328C2609.82 138.111 2630.07 172.734 2630.07 172.734L2686.25 278.562C2709.11 320.371 2707.15 351.074 2707.15 351.074V409.214C2707.15 441.224 2681.02 467.354 2648.36 467.354H2618.96C2587.6 466.048 2562.78 440.571 2562.13 409.214V362.179C2562.13 347.154 2569.31 339.969 2575.19 336.702C2579.11 335.396 2598.06 326.903 2609.82 321.677V401.375C2609.82 415.093 2620.92 426.199 2634.64 426.199C2648.36 426.199 2659.46 415.093 2659.46 400.722V348.461C2659.46 321.677 2639.21 286.401 2639.21 286.401L2583.03 181.227C2560.17 139.418 2562.13 108.715 2562.13 108.715V61.6801C2562.13 29.6704 2588.26 0.927002 2620.92 0.927002H2650.32C2681.67 1.58026 2707.15 30.3237 2707.15 61.6801V79.3181C2707.15 94.3431 2699.97 101.529 2694.09 104.795Z" fill="#FAD7B4"/>
<path d="M778.117 544.099L772.26 556.789C771.284 558.985 768.6 561.426 762.987 561.426H749.32C746.879 561.426 745.171 563.378 744.927 565.575V714.931H732.481C728.332 714.931 727.6 712.49 727.6 711.27V561.426H702.951V549.468C702.951 546.539 705.392 544.099 708.32 544.099H778.117ZM909.78 697.604H946.387C944.435 701.996 941.506 708.83 940.774 710.294C939.554 712.49 936.869 714.931 931.256 714.931H892.209V548.98C892.453 546.295 894.649 544.099 897.578 544.099H943.214L937.357 556.789C936.381 558.985 933.697 561.67 928.084 561.67H913.929C911.488 561.67 909.78 563.378 909.78 565.819V616.58H936.137C934.185 620.973 931.256 628.05 930.524 629.515C929.304 631.711 926.863 634.152 921.25 634.152H913.929C911.732 634.152 909.78 636.104 909.78 638.3V697.604ZM1119.78 653.675V694.919C1119.78 706.633 1110.51 716.151 1098.79 716.639H1088.06C1075.85 716.639 1066.09 706.877 1066.09 694.919V564.11C1066.09 552.152 1075.85 542.39 1088.06 542.39H1098.79C1110.51 542.634 1119.78 552.396 1119.78 564.11V590.223C1119.78 595.836 1117.34 598.521 1115.14 599.497L1102.45 605.354V567.039C1102.45 561.914 1098.31 557.765 1092.94 557.765C1087.81 557.765 1083.66 561.914 1083.66 567.039V691.746C1083.66 697.115 1087.81 701.264 1092.94 701.264C1098.31 701.264 1102.45 697.115 1102.45 691.746V668.806C1102.45 663.193 1104.89 660.509 1107.09 659.288C1108.56 658.556 1115.39 655.628 1119.78 653.675ZM1284.63 544.099H1295.13C1300.5 544.099 1302.21 548.003 1302.21 550.932V714.931H1284.63V640.497C1284.39 638.3 1282.68 636.592 1280.49 636.592H1261.45V714.931H1243.88V550.932C1243.88 548.003 1245.59 544.099 1250.96 544.099H1261.45V613.164C1261.45 618.045 1263.4 619.265 1267.55 619.265H1284.63V544.099ZM1481.46 544.099V714.931H1473.4C1463.89 714.931 1462.42 707.365 1461.69 703.949L1442.9 619.509V714.931H1425.33V544.099H1433.38C1443.14 544.099 1444.85 548.736 1445.83 553.616L1463.89 642.449V544.099H1481.46ZM1627.52 542.39H1640.94C1652.66 542.878 1662.17 552.396 1662.17 564.11V695.163C1661.93 706.877 1652.66 716.151 1640.94 716.639H1627.52C1615.56 716.639 1605.8 706.877 1605.55 695.163V564.11C1605.55 552.152 1615.32 542.39 1627.52 542.39ZM1632.4 701.264H1635.08C1640.21 701.264 1644.36 697.115 1644.36 691.746V567.283C1644.36 561.914 1640.21 557.765 1635.08 557.765H1632.4C1627.27 558.009 1623.13 562.158 1623.13 567.283V691.746C1623.13 696.871 1627.27 701.02 1632.4 701.264ZM1810.19 697.604H1849.72C1847.77 701.996 1844.84 708.83 1844.11 710.294C1842.89 712.49 1840.2 714.931 1834.59 714.931H1792.62V544.099H1804.82C1807.75 544.343 1810.19 546.539 1810.19 549.468V697.604ZM1976.26 542.39H1989.68C2001.4 542.878 2010.91 552.396 2010.91 564.11V695.163C2010.67 706.877 2001.4 716.151 1989.68 716.639H1976.26C1964.3 716.639 1954.54 706.877 1954.3 695.163V564.11C1954.3 552.152 1964.06 542.39 1976.26 542.39ZM1981.14 701.264H1983.83C1988.95 701.264 1993.1 697.115 1993.1 691.746V567.283C1993.1 561.914 1988.95 557.765 1983.83 557.765H1981.14C1976.02 558.009 1971.87 562.158 1971.87 567.283V691.746C1971.87 696.871 1976.02 701.02 1981.14 701.264ZM2189.92 564.11V590.711C2189.92 596.569 2187.48 599.009 2185.04 600.229C2183.82 600.961 2176.99 604.134 2172.35 606.086V567.039C2172.35 561.914 2168.2 557.765 2163.08 557.765C2157.95 557.765 2153.8 561.914 2153.8 567.039V691.99C2153.8 697.115 2157.95 701.264 2163.08 701.264C2168.2 701.264 2172.35 697.115 2172.35 691.99V640.985H2171.62C2167.71 640.985 2165.27 635.372 2165.27 635.372L2159.42 623.17H2181.38C2186.75 623.17 2189.92 626.098 2189.92 632.687V694.919C2189.92 706.633 2180.4 716.151 2168.69 716.639H2157.95C2145.99 716.639 2136.23 706.877 2136.23 694.919V564.11C2136.23 552.152 2145.99 542.39 2157.95 542.39H2168.69C2180.4 542.878 2189.92 552.396 2189.92 564.11ZM2322.56 544.099H2333.06C2338.18 544.099 2340.13 548.003 2340.13 550.932V714.931H2327.69C2323.54 714.931 2322.81 712.49 2322.56 711.27V544.099ZM2497.42 697.604H2534.03C2532.07 701.996 2529.15 708.83 2528.41 710.294C2527.19 712.49 2524.51 714.931 2518.9 714.931H2479.85V548.98C2480.09 546.295 2482.29 544.099 2485.22 544.099H2530.85L2525 556.789C2524.02 558.985 2521.34 561.67 2515.72 561.67H2501.57C2499.13 561.67 2497.42 563.378 2497.42 565.819V616.58H2523.78C2521.82 620.973 2518.9 628.05 2518.16 629.515C2516.94 631.711 2514.5 634.152 2508.89 634.152H2501.57C2499.37 634.152 2497.42 636.104 2497.42 638.3V697.604ZM2702.3 581.194C2700.83 581.926 2694 585.098 2689.36 587.051V567.283C2689.36 561.914 2685.21 557.765 2680.09 557.765C2674.96 557.765 2670.81 561.914 2670.81 567.283V583.634C2670.81 593.64 2678.38 606.574 2678.38 606.574L2699.37 646.11C2707.91 661.729 2707.18 673.199 2707.18 673.199V694.919C2707.18 706.877 2697.42 716.639 2685.21 716.639H2674.23C2662.52 716.151 2653.24 706.633 2653 694.919V677.348C2653 671.735 2655.68 669.05 2657.88 667.83C2659.34 667.342 2666.42 664.169 2670.81 662.217V691.99C2670.81 697.115 2674.96 701.264 2680.09 701.264C2685.21 701.264 2689.36 697.115 2689.36 691.746V672.223C2689.36 662.217 2681.8 649.038 2681.8 649.038L2660.81 609.747C2652.27 594.128 2653 582.658 2653 582.658V565.087C2653 553.128 2662.76 542.39 2674.96 542.39H2685.95C2697.66 542.634 2707.18 553.372 2707.18 565.087V571.676C2707.18 577.289 2704.49 579.973 2702.3 581.194Z" fill="#FAD7B4"/>
<defs>
<linearGradient id="paint0_linear_64_36" x1="0.512207" y1="419.941" x2="390.224" y2="419.941" gradientUnits="userSpaceOnUse">
<stop stop-color="#834F2A"/>
<stop offset="0.5" stop-color="#DBA173"/>
<stop offset="1" stop-color="#834F2A"/>
</linearGradient>
<linearGradient id="paint1_linear_64_36" x1="111.857" y1="698.282" x2="390.224" y2="698.282" gradientUnits="userSpaceOnUse">
<stop stop-color="#834F2A"/>
<stop offset="0.5" stop-color="#DBA173"/>
<stop offset="1" stop-color="#834F2A"/>
</linearGradient>
<linearGradient id="paint2_linear_64_36" x1="223.202" y1="586.937" x2="557.246" y2="586.937" gradientUnits="userSpaceOnUse">
<stop stop-color="#834F2A"/>
<stop offset="0.5" stop-color="#DBA173"/>
<stop offset="1" stop-color="#834F2A"/>
</linearGradient>
</defs>
</svg>
